# xmcd
#
# Track frame offsets:
# 150
# 14250
# 22643
# 38993
# 52760
# 63742
# 77910
# 93248
# 106290
# 116175
# 130226
# 139755
# 149976
# 168606
# 179723
# 190132
#
# Disc length: 2654 seconds
#
#
# Revision: 0
# Processed by: cddbd v1.5.1PL0 Copyright (c) Steve Scherf et al.
# Submitted via: FreeRIP 2.60 
#
DISCID=e60a5c10
DTITLE=The Lonesome Travellers - Freedom Feeling
DYEAR=2001
DGENRE=Country Folk
TTITLE0=Mama dont´t allow
TTITLE1=Freedom feeling
TTITLE2=Whits Cliffs of Dover
TTITLE3=Down by the Riverside
TTITLE4=This Train
TTITLE5=Midnight Special
TTITLE6=Where all the Flowers gone
TTITLE7=KC-Moan
TTITLE8=Hello, Mary Lou
TTITLE9=Jessi James
TTITLE10=Hey Liley, Leley Lou
TTITLE11=Country Road
TTITLE12=Casey Jones
TTITLE13=Over the Gloryland
TTITLE14=Colours
TTITLE15=You are my Sunshine
EXTD=
EXTT0=
EXTT1=
EXTT2=
EXTT3=
EXTT4=
EXTT5=
EXTT6=
EXTT7=
EXTT8=
EXTT9=
EXTT10=
EXTT11=
EXTT12=
EXTT13=
EXTT14=
EXTT15=
PLAYORDER=
